<?xml version="1.0" standalone="no"?>
<!DOCTYPE svg PUBLIC "-//W3C//DTD SVG 20010904//EN"
 "http://www.w3.org/TR/2001/REC-SVG-20010904/DTD/svg10.dtd">
<svg version="1.0" xmlns="http://www.w3.org/2000/svg"
 width="1280.000000pt" height="1280.000000pt" viewBox="0 0 1280.000000 1280.000000"
 preserveAspectRatio="xMidYMid meet">
<metadata>
Created by potrace 1.16, written by Peter Selinger 2001-2019
</metadata>
<g transform="translate(0.000000,1280.000000) scale(0.100000,-0.100000)"
fill="#000000" stroke="none">
<path d="M6345 12603 c-81 -43 -115 -102 -115 -204 0 -99 25 -142 118 -204 3
-2 -136 -276 -183 -360 -91 -165 -219 -311 -310 -354 -27 -13 -60 -28 -73 -34
-32 -15 -180 -14 -232 2 -25 7 -62 22 -83 32 -22 10 -43 19 -48 19 -28 0 -248
163 -348 257 l-114 108 40 54 c116 153 19 360 -170 361 -131 0 -227 -92 -227
-219 0 -73 18 -116 67 -162 48 -45 100 -69 151 -69 44 0 41 5 74 -115 6 -22
18 -62 28 -90 9 -27 23 -77 30 -110 7 -33 17 -64 22 -69 4 -6 8 -19 8 -31 0
-12 4 -25 8 -30 5 -6 14 -35 21 -65 7 -30 16 -64 21 -75 4 -11 13 -40 20 -65
7 -25 16 -56 20 -70 4 -14 17 -56 28 -95 12 -38 35 -115 52 -170 16 -55 35
-118 41 -140 6 -22 17 -51 23 -65 7 -14 18 -44 24 -67 27 -98 36 -124 43 -128
4 -3 29 0 55 5 27 6 65 13 84 16 19 3 44 9 55 14 11 4 54 13 95 20 41 7 82 14
90 17 21 7 127 20 310 38 102 10 265 15 475 15 445 0 702 -25 1020 -100 166
-39 161 -41 194 70 12 41 26 83 31 92 6 10 10 29 10 42 0 14 9 49 19 78 18 50
33 99 68 228 9 30 21 73 28 95 8 22 21 65 29 95 9 30 25 89 37 130 11 41 24
84 29 95 5 11 18 56 30 100 12 44 26 91 30 105 5 14 18 59 30 100 39 132 37
130 82 130 136 0 241 142 209 284 -38 170 -265 224 -389 93 -71 -74 -68 -233
5 -309 25 -26 25 -28 10 -52 -20 -31 -213 -198 -299 -259 -35 -25 -99 -63
-143 -85 -225 -111 -393 -89 -559 75 -73 72 -172 227 -275 430 l-91 183 41 37
c22 20 49 54 60 74 23 46 26 141 5 190 -15 34 -72 94 -113 117 -33 17 -161 15
-198 -5z"/>
<path d="M6185 10471 c-239 -12 -479 -50 -760 -123 -166 -42 -434 -130 -530
-172 -16 -8 -64 -28 -105 -46 -98 -43 -350 -173 -420 -218 -324 -206 -554
-386 -735 -574 -49 -52 -137 -143 -196 -203 -214 -223 -456 -578 -611 -895
-61 -126 -108 -229 -119 -260 -4 -14 -26 -74 -49 -135 -22 -60 -45 -126 -49
-145 -5 -19 -25 -89 -44 -155 -104 -361 -149 -695 -148 -1105 1 -462 69 -878
215 -1310 99 -290 273 -647 439 -895 171 -256 400 -527 622 -733 135 -126 372
-316 490 -393 209 -136 267 -170 451 -260 93 -47 187 -92 209 -101 22 -9 61
-26 86 -37 136 -57 470 -157 669 -199 144 -31 340 -60 480 -72 171 -14 594
-12 770 4 428 40 858 155 1285 346 104 46 327 162 355 185 8 7 22 15 30 18 20
9 162 100 257 166 304 212 651 549 894 871 71 94 239 344 239 356 0 3 9 18 19
33 10 14 46 78 78 141 33 63 64 124 70 135 27 51 133 301 133 314 0 5 14 41
30 81 17 40 30 83 30 96 0 12 5 26 10 29 6 3 10 15 10 26 0 10 4 27 9 37 5 9
15 37 21 62 7 25 16 59 21 75 8 30 43 177 59 250 5 22 14 74 20 115 6 41 15
102 20 135 43 274 37 864 -10 1145 -6 36 -15 90 -20 120 -4 30 -15 85 -24 123
-9 37 -22 95 -30 130 -8 34 -21 82 -30 107 -9 25 -16 54 -16 66 0 11 -3 24 -7
28 -11 10 -33 79 -33 103 0 12 -4 25 -10 28 -5 3 -10 15 -10 26 0 10 -4 27 -9
37 -11 22 -23 50 -55 135 -39 100 -157 350 -212 447 -66 116 -136 230 -144
235 -5 3 -16 21 -25 39 -23 47 -197 277 -302 397 -243 279 -523 527 -808 717
-213 142 -236 155 -450 261 -173 86 -272 131 -286 131 -5 0 -28 9 -52 19 -104
48 -394 135 -567 171 -204 42 -253 51 -395 69 -171 23 -523 33 -760 22z m620
-236 c187 -19 295 -36 420 -64 22 -5 60 -13 85 -19 130 -28 444 -124 541 -165
19 -8 63 -28 99 -43 112 -47 313 -148 362 -182 26 -18 49 -32 53 -32 3 0 30
-16 60 -34 30 -19 71 -44 92 -55 65 -33 287 -200 429 -323 103 -89 363 -352
393 -398 9 -14 46 -62 83 -107 57 -71 171 -229 203 -281 6 -9 27 -42 48 -74
20 -31 37 -60 37 -63 0 -4 9 -19 19 -34 22 -31 177 -336 204 -401 11 -25 27
-64 38 -87 10 -24 19 -48 19 -53 0 -6 9 -30 20 -52 11 -23 20 -48 20 -55 0 -7
4 -21 9 -31 13 -26 42 -113 51 -152 5 -19 13 -52 19 -72 24 -82 32 -115 41
-158 4 -25 15 -76 23 -115 51 -244 85 -630 73 -827 -18 -285 -30 -410 -54
-553 -11 -68 -19 -103 -54 -255 -9 -41 -33 -130 -59 -220 -6 -19 -14 -44 -18
-55 -5 -11 -14 -38 -20 -60 -7 -22 -21 -59 -32 -82 -10 -24 -19 -47 -19 -53 0
-6 -10 -32 -21 -58 -12 -26 -28 -63 -36 -82 -19 -44 -81 -179 -95 -204 -5 -10
-18 -33 -27 -50 -10 -17 -33 -60 -51 -96 -19 -36 -56 -97 -82 -137 -26 -40
-48 -74 -48 -77 0 -3 -14 -25 -30 -48 -17 -24 -49 -70 -72 -103 -23 -33 -60
-83 -83 -112 -22 -28 -66 -85 -98 -126 -121 -154 -471 -483 -620 -582 -29 -19
-88 -59 -132 -90 -71 -50 -171 -112 -305 -189 -85 -50 -391 -196 -408 -196 -5
0 -27 -9 -50 -20 -22 -11 -46 -20 -52 -20 -5 0 -18 -4 -28 -10 -9 -5 -46 -19
-82 -30 -36 -12 -74 -25 -85 -30 -53 -22 -350 -94 -457 -111 -32 -5 -86 -14
-120 -19 -322 -53 -804 -53 -1123 -1 -33 6 -91 15 -130 21 -179 27 -506 122
-740 216 -135 54 -399 185 -520 259 -197 119 -411 276 -554 404 -46 42 -110
99 -142 126 -145 124 -454 498 -539 654 -9 15 -36 61 -61 102 -100 162 -209
374 -267 519 -148 372 -223 668 -273 1080 -17 136 -17 619 0 765 16 142 46
325 72 445 247 1119 1000 2078 2029 2582 298 146 498 216 860 302 111 26 334
61 480 75 146 14 554 12 705 -4z"/>
<path d="M6145 10099 c-174 -17 -311 -37 -465 -70 -93 -20 -108 -24 -200 -48
-104 -29 -399 -127 -470 -158 -66 -28 -335 -163 -401 -200 -122 -70 -330 -213
-380 -261 -13 -13 -58 -49 -99 -80 -84 -63 -435 -409 -496 -489 -21 -28 -74
-97 -116 -153 -43 -55 -78 -105 -78 -110 0 -6 -4 -10 -10 -10 -10 0 -125 -171
-177 -265 -37 -68 -163 -321 -185 -375 -44 -105 -163 -466 -179 -545 -18 -90
-21 -101 -29 -120 -5 -11 -11 -40 -14 -65 -3 -25 -10 -74 -16 -110 -28 -172
-34 -266 -34 -590 0 -328 4 -409 34 -590 6 -36 13 -87 16 -115 3 -27 10 -54
15 -59 5 -6 9 -25 9 -42 0 -18 5 -36 10 -39 5 -3 10 -18 10 -32 0 -27 7 -51
90 -308 53 -165 165 -420 247 -560 25 -44 53 -93 61 -110 8 -16 24 -43 36 -60
12 -16 28 -43 36 -58 7 -15 28 -45 45 -65 17 -20 35 -44 38 -52 17 -36 173
-234 275 -349 273 -306 495 -493 829 -696 149 -91 407 -225 433 -225 5 0 31
-10 57 -21 61 -28 79 -35 128 -50 22 -7 44 -17 50 -21 5 -4 18 -8 30 -8 12 0
25 -4 30 -8 11 -9 114 -41 270 -83 67 -18 183 -43 230 -49 28 -4 95 -14 150
-23 298 -48 776 -47 1060 3 33 5 87 14 120 19 56 8 113 21 255 56 175 43 371
110 517 176 24 10 64 28 91 40 205 91 513 275 691 414 189 148 418 365 568
540 37 44 79 92 92 107 58 66 185 250 263 383 60 101 208 385 208 399 0 3 13
34 28 68 16 35 34 79 41 98 7 19 17 44 22 55 31 74 94 289 139 480 14 58 47
255 60 360 45 365 19 877 -61 1215 -54 231 -131 470 -219 680 -74 178 -265
517 -373 660 -94 126 -235 297 -306 372 -138 147 -481 434 -661 552 -41 27
-99 66 -129 85 -30 20 -91 54 -135 77 -45 23 -106 54 -136 71 -71 38 -277 125
-360 153 -36 12 -74 26 -85 30 -11 5 -56 18 -100 30 -44 12 -109 30 -145 40
-36 10 -90 23 -120 30 -30 6 -73 15 -95 20 -22 5 -70 14 -108 19 -37 6 -97 15
-135 21 -192 29 -561 38 -767 19z m710 -139 c33 -5 92 -15 130 -21 190 -30
428 -87 540 -130 28 -10 55 -19 61 -19 21 0 294 -114 409 -171 176 -87 271
-141 387 -220 15 -11 30 -19 33 -19 3 0 28 -17 55 -37 27 -21 79 -60 116 -88
283 -212 576 -524 787 -840 229 -341 386 -689 487 -1080 76 -296 99 -470 107
-805 8 -364 -21 -630 -103 -953 -101 -394 -255 -737 -487 -1087 -85 -127 -125
-181 -271 -359 -69 -85 -342 -361 -357 -361 -5 0 -41 -27 -80 -60 -71 -59
-261 -197 -329 -238 -176 -106 -404 -226 -515 -272 -11 -4 -41 -17 -67 -29
-26 -12 -52 -21 -58 -21 -6 0 -18 -4 -28 -10 -31 -17 -288 -96 -384 -119 -126
-29 -125 -29 -303 -61 -297 -54 -837 -50 -1135 9 -25 5 -63 12 -85 16 -22 3
-56 10 -75 15 -70 18 -166 42 -200 50 -55 12 -314 101 -325 111 -5 5 -15 9
-22 9 -25 0 -362 162 -458 220 -27 17 -57 33 -65 37 -21 9 -244 159 -298 200
-121 92 -304 250 -367 318 -288 306 -428 490 -582 763 -31 54 -155 305 -173
347 -4 11 -17 41 -29 67 -12 26 -21 51 -21 56 0 5 -9 27 -20 50 -11 22 -20 50
-20 62 0 11 -4 29 -10 40 -5 11 -14 29 -20 40 -5 11 -10 31 -10 44 0 14 -4 27
-9 30 -5 3 -11 18 -14 33 -3 16 -11 46 -17 68 -6 22 -15 58 -20 80 -5 22 -14
60 -20 85 -10 43 -20 101 -41 240 -41 276 -45 736 -9 935 5 28 14 91 21 140 7
50 19 119 27 155 7 36 16 80 19 98 3 18 9 35 14 38 5 3 9 17 9 32 0 15 9 52
20 82 11 30 20 63 20 72 0 10 5 28 12 41 24 48 28 57 28 77 0 12 9 38 20 60
11 22 20 44 20 50 0 41 205 453 293 588 26 40 47 74 47 77 0 4 142 194 192
256 65 82 230 260 325 351 54 51 113 108 133 127 19 19 58 51 87 72 28 21 64
50 80 65 27 26 273 193 303 207 8 4 38 20 65 37 28 17 118 63 200 104 132 65
184 88 285 129 14 5 34 13 45 18 28 12 272 88 315 99 19 4 53 13 75 19 97 25
185 44 245 53 36 5 97 13 135 19 141 21 296 27 555 23 146 -2 292 -8 325 -14z"/>
<path d="M6440 9840 c-8 -4 -35 -14 -60 -21 -25 -7 -49 -16 -55 -20 -5 -3 -45
-17 -88 -29 -43 -13 -80 -27 -83 -32 -3 -4 -15 -8 -28 -8 -22 0 -142 -39 -201
-65 -16 -7 -65 -23 -108 -36 -43 -12 -80 -26 -83 -31 -3 -4 -14 -8 -24 -8 -11
0 -35 -9 -55 -20 -20 -11 -43 -20 -52 -20 -16 0 -69 -15 -108 -31 -11 -4 -40
-15 -65 -23 -25 -9 -83 -30 -130 -47 -47 -17 -101 -33 -120 -36 -32 -4 -70
-19 -110 -42 -8 -5 -35 -15 -60 -22 -25 -7 -49 -16 -55 -20 -5 -4 -26 -12 -45
-17 -62 -19 -110 -38 -122 -50 -25 -25 12 -54 107 -83 40 -12 64 -21 120 -45
102 -43 161 -66 244 -94 114 -38 166 -64 175 -85 3 -9 6 -100 6 -201 0 -149 3
-186 14 -190 15 -6 80 14 131 39 45 22 159 55 340 98 22 6 63 12 90 15 28 3
59 9 70 14 11 5 45 11 75 14 30 2 102 10 160 16 174 20 613 0 672 -31 10 -5
28 -9 40 -9 29 0 138 -20 163 -31 11 -4 45 -13 75 -20 30 -6 75 -19 100 -29
25 -10 72 -28 105 -40 33 -12 68 -26 77 -31 26 -13 54 -11 67 5 9 10 12 70 11
198 -1 101 -1 189 -1 196 1 7 20 21 44 31 49 23 250 90 290 98 l27 5 0 -249 0
-249 -30 -29 c-16 -16 -30 -39 -30 -52 0 -29 66 -103 91 -103 23 0 109 81 109
103 0 8 -11 29 -25 45 l-25 30 0 264 c0 291 0 293 60 308 63 15 144 48 148 59
6 18 -17 39 -56 51 -20 6 -46 15 -57 20 -11 5 -38 14 -60 20 -47 13 -110 37
-145 55 -14 7 -59 23 -100 35 -41 12 -84 26 -95 31 -11 5 -53 19 -93 32 -40
14 -76 27 -79 31 -4 3 -16 6 -28 6 -11 0 -25 4 -30 8 -6 5 -30 14 -55 21 -49
15 -94 29 -125 41 -45 16 -93 33 -150 51 -33 11 -69 23 -80 29 -11 5 -51 19
-90 31 -38 12 -78 25 -87 30 -10 5 -28 9 -41 9 -12 0 -31 6 -42 14 -11 7 -45
21 -75 31 -30 10 -59 21 -64 26 -6 5 -19 9 -30 9 -23 0 -92 22 -102 33 -10 10
-146 8 -164 -3z"/>
<path d="M6390 8640 l-45 -5 -3 -425 c-1 -233 -6 -428 -11 -433 -4 -4 -38 24
-75 64 l-66 71 6 57 c3 31 14 94 24 141 23 107 52 269 66 378 3 29 11 55 15
58 13 8 11 48 -3 62 -15 15 -90 15 -178 2 -82 -13 -229 -48 -252 -61 -10 -5
-25 -9 -33 -9 -37 0 -152 -45 -178 -69 -42 -39 -166 -293 -167 -341 0 -9 -13
-31 -30 -50 -16 -19 -29 -43 -30 -52 0 -9 -4 -20 -10 -23 -5 -3 -10 -13 -10
-22 0 -8 -9 -28 -21 -44 -14 -20 -19 -41 -17 -66 3 -33 11 -43 78 -95 41 -32
79 -58 83 -58 11 0 79 -49 152 -110 33 -28 78 -63 100 -78 97 -67 421 -414
445 -478 13 -32 59 -97 83 -116 22 -17 22 -19 24 -385 2 -344 1 -365 -13 -323
-26 74 -100 222 -133 265 -16 22 -43 57 -58 79 -76 104 -218 235 -376 346 -43
30 -94 67 -114 82 -47 37 -98 46 -123 23 -18 -16 -20 -32 -20 -147 0 -70 -1
-128 -3 -128 -1 0 -29 13 -62 30 -33 16 -72 30 -87 30 -15 0 -29 4 -32 9 -3 5
-18 12 -33 15 -80 20 -123 28 -165 33 -45 5 -48 3 -59 -23 -5 -16 -8 -49 -5
-74 3 -25 7 -72 8 -105 l3 -60 -120 0 -120 0 -3 -50 c-2 -27 2 -74 9 -103 7
-28 9 -55 6 -59 -7 -6 -42 2 -152 38 -72 23 -128 25 -145 4 -15 -18 -8 -161 9
-178 6 -6 11 -26 11 -43 0 -18 5 -36 10 -39 6 -3 10 -16 10 -27 0 -20 13 -68
31 -113 4 -11 10 -33 14 -50 3 -16 8 -41 11 -55 6 -25 19 -60 35 -92 5 -10 9
-27 9 -37 0 -11 5 -23 10 -26 6 -3 10 -19 10 -35 0 -16 4 -31 8 -34 5 -3 28
-65 52 -138 24 -73 51 -144 60 -158 9 -14 22 -45 30 -70 7 -25 17 -49 22 -55
4 -5 8 -17 8 -26 0 -9 8 -34 19 -56 10 -21 29 -60 41 -88 71 -161 98 -220 191
-410 40 -82 84 -162 98 -177 l25 -28 1121 0 c859 0 1124 3 1133 12 7 7 12 39
12 74 0 76 -13 89 -86 89 -29 0 -57 5 -62 10 -5 6 -21 44 -35 85 -97 282 -151
428 -176 470 -7 12 -44 15 -223 18 l-215 2 -14 33 c-8 17 -33 45 -56 62 l-42
30 0 77 c-1 42 3 79 8 82 4 3 11 23 14 45 5 42 47 152 78 207 10 19 27 49 37
67 25 43 145 202 191 252 20 22 45 52 56 67 99 136 200 258 218 263 55 15 269
121 341 167 101 66 204 157 275 241 177 213 263 394 301 637 6 41 16 93 21
115 14 60 29 302 29 461 0 128 -2 144 -21 168 -39 49 -44 50 -374 52 -170 1
-327 2 -347 3 l-38 1 0 56 c0 51 3 58 36 89 27 26 35 40 32 62 -3 23 -11 30
-58 46 -30 10 -77 27 -105 37 -27 9 -70 23 -95 30 -25 6 -60 16 -77 21 -34 11
-662 18 -743 9z m710 -512 c19 -32 20 -51 20 -433 -1 -455 -15 -652 -55 -747
-3 -9 -19 -22 -35 -28 -25 -10 -34 -9 -62 7 -30 18 -33 23 -32 69 0 27 6 110
14 184 8 86 14 282 14 541 1 328 4 409 15 422 9 11 29 17 57 17 39 0 47 -4 64
-32z m830 -114 c0 -125 -38 -458 -59 -524 -5 -14 -14 -45 -21 -70 -6 -25 -16
-53 -21 -62 -5 -10 -9 -23 -9 -30 0 -20 -75 -162 -119 -227 -67 -98 -200 -220
-333 -306 -32 -20 -32 -19 -11 60 30 116 35 205 39 688 l5 487 264 0 c234 0
265 -2 265 -16z m-2170 -1338 c83 -67 237 -228 299 -311 37 -49 88 -133 114
-185 48 -100 97 -234 97 -269 0 -11 5 -23 10 -26 6 -3 10 -16 10 -27 0 -24 15
-75 36 -126 10 -23 14 -79 14 -195 l-1 -162 -62 70 c-164 188 -479 465 -636
560 -9 6 -36 24 -61 41 -72 49 -273 156 -375 199 -22 9 -62 28 -89 41 -28 13
-57 24 -65 24 -9 0 -23 6 -31 13 -19 15 -45 91 -36 105 13 21 129 -11 156 -42
8 -10 29 -16 56 -16 24 0 66 -9 92 -21 260 -114 391 -198 541 -348 115 -116
188 -199 209 -240 26 -51 95 -131 112 -131 32 0 43 25 30 67 -28 93 -88 206
-158 297 -180 238 -425 430 -669 527 -22 9 -33 13 -100 40 -31 13 -43 38 -43
95 0 28 -1 28 47 8 21 -9 47 -20 58 -24 71 -27 177 -86 190 -106 11 -17 25
-24 49 -24 20 0 40 -8 51 -20 10 -11 22 -20 27 -20 13 0 86 -61 186 -155 86
-81 149 -159 241 -296 45 -69 131 -228 131 -244 0 -4 9 -20 21 -37 29 -40 72
-37 77 7 7 58 -66 266 -143 405 -92 166 -166 260 -293 373 -88 78 -80 71 -154
120 -56 37 -58 39 -58 83 l0 45 43 -33 c23 -18 58 -46 77 -62z m1170 64 c22
-22 25 -51 9 -82 -13 -25 -209 -270 -223 -280 -33 -23 -106 21 -106 62 0 10
20 45 45 77 25 32 77 100 115 151 65 85 73 92 105 92 22 0 43 -8 55 -20z"/>
<path d="M8137 4464 c-10 -10 -9 -68 2 -79 5 -6 5 -37 0 -70 -23 -176 -23
-172 0 -185 13 -7 39 -9 66 -5 83 13 124 -1 187 -66 32 -33 64 -59 71 -59 8 0
47 36 86 80 40 44 81 80 91 80 44 0 52 72 9 85 -17 6 -29 -1 -55 -29 -64 -70
-154 -38 -154 56 0 29 6 45 22 58 19 15 21 22 13 46 -18 52 -95 42 -95 -12 0
-23 -30 -49 -80 -71 -30 -12 -44 -5 -78 43 -19 27 -20 35 -9 63 8 23 9 36 1
49 -11 17 -64 29 -77 16z"/>
<path d="M4698 4415 c-2 -3 -42 -9 -89 -15 -173 -21 -167 -18 -226 -90 -30
-36 -70 -84 -89 -108 -48 -57 -43 -76 21 -80 37 -2 54 -9 67 -25 15 -19 19
-20 42 -7 19 10 31 29 42 68 13 45 21 56 50 68 18 8 62 14 97 14 72 0 92 13
82 52 -4 17 1 30 19 48 28 26 33 49 14 68 -13 13 -22 15 -30 7z"/>
<path d="M4503 4188 c-4 -7 -6 -114 -5 -238 2 -190 5 -227 19 -242 14 -16 37
-18 213 -18 181 0 198 2 214 19 12 13 16 32 14 58 l-3 38 -152 3 -153 3 0 44
0 44 133 3 132 3 3 40 c5 58 -10 65 -150 65 l-118 0 0 35 0 35 128 0 c148 0
175 9 180 58 6 61 2 62 -234 62 -159 0 -215 -3 -221 -12z"/>
<path d="M5257 4193 c-4 -3 -7 -27 -7 -53 l0 -47 -55 5 c-74 6 -119 -4 -156
-35 -59 -50 -80 -130 -62 -238 5 -29 19 -52 54 -87 48 -48 48 -48 117 -48 40
0 73 5 80 12 10 10 17 10 32 0 29 -18 84 -15 103 6 15 16 17 49 17 249 0 201
-2 232 -16 237 -21 8 -99 8 -107 -1z m-33 -203 c25 -9 26 -13 26 -90 0 -68 -3
-81 -17 -86 -10 -3 -26 -10 -35 -15 -26 -13 -36 -11 -58 11 -30 30 -29 135 2
167 23 25 43 28 82 13z"/>
<path d="M5982 4178 c-78 -37 -112 -107 -112 -227 0 -176 94 -261 291 -261 90
0 123 10 187 57 53 40 79 112 50 141 -7 7 -33 12 -58 12 -42 0 -51 -4 -82 -39
-42 -47 -85 -58 -156 -41 -64 15 -76 37 -75 140 1 105 15 119 120 120 l71 0
32 -40 c29 -37 36 -40 80 -40 59 0 75 16 67 67 -7 42 -56 99 -104 119 -22 9
-71 14 -150 14 -99 -1 -125 -4 -161 -22z"/>
<path d="M6447 4193 c-4 -3 -7 -111 -7 -238 0 -264 0 -265 78 -265 64 0 74 23
66 149 -7 111 -4 120 50 148 28 15 31 14 48 -7 15 -19 18 -41 18 -140 0 -135
8 -150 77 -150 64 0 73 18 73 141 -1 163 -20 218 -92 255 -36 18 -112 18 -148
-1 l-30 -16 0 54 c0 29 -5 58 -12 65 -13 13 -110 17 -121 5z"/>
<path d="M6978 4087 c-64 -29 -86 -77 -50 -110 25 -23 70 -21 110 3 42 26 88
26 102 1 16 -30 14 -31 -51 -31 -91 0 -144 -17 -179 -57 -35 -39 -38 -75 -13
-128 26 -54 70 -75 157 -75 43 0 77 5 84 12 10 10 17 10 32 0 32 -20 87 -15
110 10 18 19 20 35 20 133 0 158 -17 200 -95 236 -47 22 -183 25 -227 6z"/>
<path d="M7495 4086 c-14 -10 -25 -11 -38 -5 -10 6 -39 9 -65 7 l-47 -3 -3
-178 c-1 -111 1 -185 8 -197 8 -15 21 -20 55 -20 69 0 75 12 75 149 0 110 1
119 23 139 29 28 42 28 61 0 12 -17 16 -49 16 -136 0 -138 6 -152 63 -152 72
0 76 8 79 149 3 122 3 124 31 144 26 20 28 20 45 4 14 -15 18 -40 20 -145 2
-70 8 -133 14 -139 16 -20 92 -16 111 5 23 25 24 252 2 305 -34 82 -130 111
-221 67 l-42 -21 -34 21 c-39 24 -124 27 -153 6z"/>
<path d="M8171 4091 c-7 -5 -40 -6 -72 -4 -92 9 -89 17 -89 -248 0 -255 1
-259 68 -259 56 0 82 23 82 71 l0 39 73 0 c70 0 75 2 115 36 53 45 72 89 72
169 0 93 -35 157 -107 194 -26 13 -122 14 -142 2z m71 -105 c21 -16 38 -58 38
-96 0 -64 -44 -109 -94 -96 -25 6 -26 8 -26 95 0 81 2 89 23 99 29 14 39 14
59 -2z"/>
<path d="M5437 4083 c-4 -3 -7 -66 -7 -140 0 -148 11 -192 58 -230 21 -18 40
-22 89 -23 34 0 74 5 88 12 19 9 28 9 37 0 18 -18 94 -15 112 4 13 13 16 44
16 188 0 200 0 199 -82 194 l-53 -3 -5 -130 -5 -130 -38 -20 -38 -20 -20 24
c-16 20 -19 39 -19 142 0 107 -2 119 -19 129 -22 11 -104 14 -114 3z"/>
<path d="M9957 9703 c-14 -13 -6 -43 22 -90 15 -26 47 -82 71 -123 24 -41 56
-97 71 -123 16 -27 29 -57 29 -68 0 -22 26 -76 70 -146 17 -26 30 -56 30 -68
0 -11 18 -51 39 -88 22 -37 45 -84 52 -105 16 -51 46 -109 118 -230 17 -29 31
-56 31 -59 0 -3 10 -20 23 -37 13 -17 35 -52 51 -79 15 -26 38 -54 50 -63 13
-8 29 -28 36 -44 7 -16 23 -36 36 -45 13 -8 33 -33 44 -55 11 -22 31 -47 45
-56 13 -9 27 -25 30 -35 4 -11 23 -37 43 -58 20 -21 46 -53 57 -71 30 -51 50
-59 76 -33 20 20 21 25 11 80 -7 32 -17 117 -22 188 -6 72 -17 168 -25 215 -8
47 -17 112 -21 145 -4 33 -13 69 -20 80 -8 11 -14 28 -14 39 0 10 -16 47 -35
82 -19 34 -35 70 -35 79 0 17 -56 125 -70 135 -4 3 -15 20 -24 37 -9 18 -27
40 -41 49 -13 9 -27 24 -30 34 -3 10 -61 69 -128 130 -67 62 -142 132 -167
155 -41 39 -203 155 -216 155 -3 0 -31 18 -61 40 -53 38 -108 52 -126 33z"/>
<path d="M2840 9666 c-19 -13 -88 -59 -153 -101 -65 -43 -145 -102 -178 -132
-33 -29 -63 -53 -67 -53 -4 0 -14 -11 -22 -24 -8 -13 -46 -52 -85 -87 -38 -34
-78 -76 -88 -92 -10 -17 -27 -37 -38 -46 -25 -21 -119 -179 -119 -201 0 -10
-14 -43 -31 -76 -70 -130 -96 -251 -125 -564 -7 -80 -18 -173 -25 -208 -10
-54 -10 -65 3 -79 23 -22 53 -8 79 35 13 20 39 56 58 79 20 23 54 65 76 93
103 129 126 157 152 184 15 15 53 72 84 125 30 53 64 111 75 129 10 19 40 70
67 115 26 45 47 93 47 107 0 14 9 39 21 55 33 48 69 123 69 142 0 10 20 52 44
94 23 42 45 89 49 105 3 16 53 112 111 213 84 144 104 186 95 197 -17 21 -60
17 -99 -10z"/>
<path d="M10967 8933 c-17 -16 -3 -64 40 -143 25 -47 49 -101 54 -120 4 -19
13 -53 19 -75 7 -22 15 -62 19 -90 3 -27 10 -55 13 -61 4 -6 8 -109 8 -230 2
-300 28 -627 64 -804 7 -33 9 -63 4 -66 -4 -3 -8 6 -8 20 0 14 -4 27 -9 31 -5
3 -13 20 -16 38 -4 17 -25 65 -46 105 -22 41 -39 80 -39 88 0 23 -35 87 -60
109 -13 11 -34 38 -48 60 -13 22 -35 51 -48 65 -229 241 -436 479 -459 525 -9
20 -27 42 -40 51 -27 18 -75 107 -75 139 0 30 -48 95 -70 95 -33 0 -43 -36
-36 -129 12 -163 25 -228 66 -331 12 -30 29 -77 37 -104 8 -26 28 -69 43 -95
15 -25 51 -86 79 -136 28 -49 56 -97 62 -105 5 -8 17 -28 27 -45 9 -16 29 -42
44 -57 15 -16 37 -43 50 -61 12 -18 33 -43 46 -57 53 -56 252 -293 252 -301 0
-4 18 -29 40 -54 23 -26 56 -77 75 -114 20 -36 53 -97 75 -136 45 -78 51 -89
75 -158 21 -58 38 -67 71 -37 17 17 24 34 24 62 0 21 6 64 14 96 8 31 19 84
24 117 5 33 30 139 57 235 26 96 52 200 57 230 5 30 14 77 19 103 32 143 49
379 37 497 -12 111 -30 202 -45 225 -7 11 -13 28 -13 38 0 11 -18 53 -40 93
-22 41 -40 82 -40 92 0 11 -10 27 -21 38 -24 21 -89 119 -89 134 0 5 -11 17
-26 26 -14 9 -31 29 -39 44 -21 41 -168 160 -197 160 -14 0 -28 -3 -31 -7z"/>
<path d="M1838 8877 c-29 -24 -66 -52 -81 -62 -15 -9 -37 -35 -49 -56 -12 -21
-30 -41 -39 -44 -10 -4 -35 -34 -55 -68 -21 -34 -50 -74 -66 -89 -15 -15 -28
-36 -28 -47 0 -12 -18 -56 -39 -98 -45 -89 -57 -122 -79 -213 -28 -115 -19
-559 12 -609 4 -5 10 -38 15 -73 5 -35 35 -160 66 -278 32 -118 61 -240 65
-270 6 -53 25 -154 38 -214 4 -16 15 -34 25 -40 15 -9 23 -6 43 17 13 15 26
40 29 55 12 58 186 360 235 407 16 16 30 33 30 37 0 10 199 243 254 299 20 19
36 40 36 46 0 5 12 20 26 34 30 28 70 84 106 149 14 25 57 100 96 168 40 68
72 133 72 145 0 12 9 37 20 55 11 18 20 39 20 48 0 8 9 32 19 53 18 35 51 261
51 350 0 31 -22 61 -46 61 -16 0 -64 -71 -64 -95 0 -22 -45 -109 -66 -126 -9
-8 -36 -43 -60 -79 -23 -36 -67 -92 -97 -125 -123 -134 -185 -199 -239 -256
-32 -33 -58 -63 -58 -68 0 -4 -15 -23 -33 -42 -19 -19 -43 -50 -55 -70 -12
-19 -31 -44 -43 -55 -34 -30 -69 -91 -69 -120 0 -15 -18 -58 -40 -96 -22 -39
-40 -79 -40 -91 0 -12 -7 -31 -15 -41 -8 -11 -15 -30 -15 -43 0 -13 -5 -23
-11 -23 -11 0 -10 26 10 150 27 163 41 355 46 605 5 274 15 404 39 485 8 25
19 65 26 90 12 48 60 146 93 194 16 22 18 34 11 55 -14 39 -36 36 -96 -12z"/>
<path d="M11652 7908 c-13 -13 -16 -96 -4 -115 22 -35 -31 -386 -80 -528 -6
-16 -23 -78 -39 -138 -16 -59 -36 -122 -45 -139 -9 -17 -29 -78 -44 -135 -15
-57 -35 -114 -43 -126 -8 -13 -18 -46 -22 -73 -3 -27 -14 -89 -25 -139 -11
-49 -24 -142 -30 -205 -6 -63 -17 -171 -24 -240 l-13 -125 -2 105 c-1 116 -15
255 -30 303 -5 18 -15 52 -21 77 -6 25 -20 63 -31 85 -10 22 -19 48 -19 58 0
17 -25 66 -100 192 -16 28 -48 82 -70 122 -23 40 -51 80 -63 90 -13 10 -37 43
-55 73 -17 30 -44 67 -60 82 -15 14 -39 47 -52 72 -14 25 -35 51 -48 58 -13 7
-37 37 -54 68 -84 156 -84 155 -109 155 l-24 0 2 -115 c2 -102 16 -230 41
-385 8 -51 28 -116 43 -147 5 -10 13 -35 19 -58 5 -22 14 -58 20 -80 5 -21 23
-60 40 -87 16 -26 30 -59 30 -74 0 -14 11 -43 25 -63 37 -54 55 -92 55 -115 0
-11 13 -42 30 -67 16 -26 33 -64 36 -83 4 -20 22 -61 40 -91 19 -31 34 -65 34
-77 0 -11 11 -41 25 -64 14 -24 25 -53 25 -64 0 -11 6 -29 14 -40 17 -25 63
-178 82 -270 7 -38 18 -89 24 -113 5 -23 10 -76 10 -117 0 -61 3 -77 16 -82
27 -10 48 11 67 68 27 83 113 264 143 299 7 8 27 42 45 75 18 33 58 99 88 146
70 108 149 248 228 404 63 124 104 253 116 360 3 22 12 69 20 105 46 192 50
440 12 640 -13 69 -29 143 -35 165 -7 22 -14 55 -17 73 -3 18 -9 35 -14 38 -5
3 -9 16 -9 30 0 14 -9 42 -20 64 -11 22 -20 48 -20 60 0 11 -11 38 -25 60 -26
41 -59 52 -83 28z"/>
<path d="M1161 7864 c-12 -15 -21 -36 -21 -48 0 -12 -9 -38 -20 -58 -11 -21
-24 -55 -29 -75 -5 -21 -16 -65 -25 -98 -61 -237 -77 -352 -76 -534 2 -135 11
-217 40 -351 10 -47 22 -107 25 -133 9 -71 69 -236 118 -327 16 -30 46 -86 66
-125 21 -38 52 -92 69 -119 18 -28 32 -53 32 -57 0 -3 27 -47 60 -97 33 -51
60 -95 60 -100 0 -5 22 -40 48 -78 66 -94 148 -257 173 -342 25 -86 69 -78 69
13 0 29 7 91 15 138 13 76 23 117 57 237 5 19 13 51 17 71 4 20 15 47 24 60
10 13 17 32 17 42 0 10 11 40 25 67 14 27 25 56 25 64 0 9 16 44 35 79 19 35
35 71 35 81 0 9 18 50 40 90 22 40 40 83 40 95 0 13 8 35 19 49 27 39 61 109
61 126 0 8 16 42 35 75 19 32 35 67 35 77 0 21 16 75 38 124 29 68 39 117 72
355 11 83 19 182 18 220 l-3 70 -34 0 c-31 0 -36 -4 -44 -35 -5 -19 -16 -46
-26 -60 -9 -14 -23 -38 -31 -54 -8 -16 -29 -43 -46 -60 -17 -17 -41 -49 -52
-71 -11 -22 -34 -53 -52 -70 -18 -16 -40 -46 -50 -66 -11 -20 -39 -59 -63 -87
-24 -29 -50 -64 -58 -79 -21 -42 -109 -192 -141 -242 -15 -24 -31 -60 -34 -80
-4 -20 -15 -50 -25 -67 -11 -17 -19 -40 -19 -50 0 -11 -6 -28 -13 -39 -30 -45
-51 -177 -51 -327 0 -82 -3 -148 -8 -148 -4 0 -8 26 -8 58 0 31 -7 111 -16
177 -8 66 -19 161 -24 210 -4 50 -15 116 -24 148 -9 32 -16 74 -16 93 0 19 -9
53 -20 77 -10 23 -33 92 -51 152 -17 61 -35 115 -40 121 -5 6 -24 66 -43 135
-19 68 -39 138 -44 154 -15 45 -60 243 -69 300 -4 28 -7 111 -8 185 0 74 -4
141 -8 148 -14 21 -54 14 -76 -14z"/>
<path d="M10652 6348 c-10 -13 -14 -36 -31 -159 -4 -37 -11 -71 -14 -75 -9
-16 -22 -403 -20 -604 3 -215 17 -450 34 -550 16 -100 32 -366 33 -560 1 -221
-21 -351 -85 -506 -15 -37 -7 -64 20 -64 11 0 70 49 140 118 139 135 184 175
226 201 17 10 39 28 50 41 11 12 37 31 58 41 20 11 37 24 37 29 0 5 33 34 73
65 91 72 264 240 335 328 53 65 234 406 262 494 7 21 16 43 20 48 4 6 13 28
19 50 7 22 20 58 31 80 23 48 90 305 90 344 0 15 7 50 15 77 18 60 23 502 6
547 -18 47 -71 30 -71 -25 0 -38 -27 -137 -45 -164 -8 -13 -15 -30 -15 -38 0
-9 -13 -44 -30 -78 -16 -34 -30 -65 -30 -69 0 -12 -29 -73 -55 -114 -14 -22
-30 -51 -37 -65 -18 -37 -147 -231 -172 -260 -28 -31 -116 -156 -116 -165 0
-3 -24 -39 -52 -81 -99 -140 -266 -446 -284 -519 -12 -50 -76 -181 -81 -167
-3 7 2 21 10 30 9 10 21 38 26 64 10 44 33 263 33 318 0 65 -14 238 -22 260
-4 14 -11 50 -13 80 -6 65 -35 197 -49 224 -5 10 -18 51 -29 92 -11 41 -28 89
-39 106 -11 18 -20 43 -20 55 0 13 -9 37 -20 55 -11 18 -20 44 -20 56 0 13 -9
37 -20 53 -12 15 -26 54 -32 86 -6 32 -14 67 -18 78 -22 55 -30 93 -30 142 0
83 -37 138 -68 101z"/>
<path d="M2196 6322 c-3 -5 -10 -50 -16 -101 -7 -51 -18 -107 -25 -124 -7 -18
-16 -54 -21 -82 -4 -27 -17 -66 -29 -85 -12 -19 -25 -53 -29 -74 -4 -22 -14
-49 -22 -60 -8 -11 -14 -29 -14 -40 0 -10 -11 -42 -24 -70 -13 -28 -29 -71
-36 -96 -6 -25 -16 -58 -22 -75 -55 -160 -93 -455 -83 -645 11 -199 20 -263
50 -325 14 -31 25 -59 22 -61 -7 -8 -23 19 -47 81 -13 33 -29 69 -37 80 -7 11
-13 27 -13 35 0 15 -95 220 -120 260 -18 29 -73 125 -88 155 -8 17 -23 39 -33
50 -24 27 -169 246 -169 256 0 4 -14 22 -32 40 -33 36 -188 267 -188 281 0 5
-16 32 -35 61 -19 28 -35 56 -35 62 0 5 -15 40 -34 76 -18 36 -36 78 -40 94
-4 16 -18 52 -31 80 -14 28 -27 77 -31 110 -7 67 -17 85 -45 85 -30 0 -38 -39
-43 -204 -4 -142 5 -255 33 -436 13 -85 69 -297 97 -361 13 -32 24 -65 24 -73
0 -9 9 -30 20 -48 11 -18 20 -39 20 -47 0 -8 32 -79 70 -158 39 -79 70 -148
70 -152 0 -5 6 -14 14 -20 8 -7 24 -32 35 -57 30 -63 129 -182 218 -261 42
-38 90 -81 108 -98 17 -16 53 -48 79 -70 26 -22 57 -51 69 -63 12 -13 39 -33
59 -43 21 -10 42 -28 48 -39 6 -11 25 -27 43 -36 38 -20 176 -142 261 -233 34
-35 69 -73 79 -83 22 -23 30 -23 52 2 18 20 18 22 -2 73 -28 69 -53 159 -53
190 0 14 -7 53 -15 86 -12 46 -15 99 -12 233 4 191 23 465 37 543 12 64 31
380 34 555 3 178 -10 529 -24 608 -5 34 -15 92 -21 130 -6 37 -18 75 -27 85
-16 18 -37 22 -46 9z"/>
<path d="M10414 4986 c-22 -16 -104 -144 -104 -164 0 -6 -13 -34 -30 -62 -16
-28 -30 -55 -30 -60 0 -5 -9 -25 -20 -45 -11 -20 -20 -42 -20 -50 0 -8 -10
-36 -21 -62 -12 -27 -30 -66 -40 -88 -21 -47 -59 -175 -59 -199 0 -9 -9 -35
-19 -59 -26 -58 -30 -69 -56 -172 -13 -49 -31 -117 -40 -150 -9 -33 -20 -74
-25 -91 -4 -17 -14 -44 -23 -60 -8 -16 -20 -49 -27 -74 -7 -25 -16 -56 -20
-70 -5 -14 -18 -65 -31 -115 -12 -49 -30 -102 -40 -117 -11 -14 -19 -35 -19
-47 0 -11 -9 -40 -19 -63 -31 -70 -68 -161 -76 -188 -5 -14 -43 -78 -86 -142
-44 -65 -79 -121 -79 -126 0 -5 -11 -19 -25 -32 -27 -25 -33 -68 -13 -88 18
-18 66 -14 97 7 14 10 46 24 71 31 25 6 68 25 96 41 28 16 61 29 72 29 11 0
40 11 63 25 24 14 51 25 59 25 8 0 27 6 42 14 15 8 42 17 60 21 18 4 49 17 69
30 20 13 53 27 73 30 20 4 61 22 92 41 31 19 74 39 96 44 38 11 91 37 133 66
11 8 30 14 43 14 12 0 33 11 45 24 28 29 151 104 186 113 14 3 41 19 59 35 18
15 56 40 85 54 29 15 72 43 96 63 86 71 294 287 334 346 22 33 55 78 74 101
52 64 163 275 163 309 0 9 9 33 20 54 10 22 29 74 40 117 12 44 31 112 42 151
16 55 19 80 12 105 -16 54 -38 46 -97 -34 -30 -40 -56 -78 -58 -85 -17 -47
-260 -291 -346 -345 -24 -15 -43 -34 -43 -42 0 -13 -54 -50 -123 -85 -16 -8
-43 -28 -59 -45 -31 -31 -112 -86 -126 -86 -5 0 -21 -14 -38 -31 -16 -17 -57
-46 -92 -66 -34 -19 -67 -43 -72 -53 -5 -10 -33 -31 -62 -48 -29 -17 -71 -46
-93 -66 -22 -20 -43 -36 -48 -36 -4 0 -93 -85 -198 -190 -105 -105 -192 -190
-194 -190 -2 0 24 37 58 83 34 45 71 100 82 122 11 22 27 49 37 60 9 11 33 63
53 115 20 52 48 124 62 160 23 58 31 98 48 235 3 22 10 63 15 90 6 28 12 226
14 440 2 337 5 397 20 438 30 83 10 128 -40 93z"/>
<path d="M2424 4956 c-3 -7 2 -42 12 -77 14 -53 17 -125 20 -419 3 -347 8
-436 40 -630 15 -95 28 -148 44 -185 5 -11 18 -45 29 -75 40 -116 53 -146 75
-175 13 -16 35 -53 49 -82 15 -28 31 -54 36 -58 14 -8 101 -124 101 -133 0 -4
-35 28 -78 71 -261 262 -375 365 -453 410 -25 15 -56 38 -70 53 -13 14 -41 35
-62 46 -22 11 -58 36 -80 57 -23 21 -64 51 -92 66 -27 16 -66 42 -85 60 -19
17 -67 50 -106 73 -39 22 -77 49 -85 58 -8 9 -36 34 -64 54 -102 76 -282 266
-348 367 -70 108 -89 128 -113 119 -13 -5 -15 -18 -12 -64 4 -63 59 -274 88
-337 10 -22 23 -58 29 -80 7 -22 22 -58 34 -81 12 -23 37 -70 56 -105 18 -35
50 -84 70 -109 21 -25 58 -74 83 -110 39 -54 193 -212 313 -319 17 -15 68 -49
114 -76 45 -28 87 -58 92 -67 5 -10 21 -18 34 -18 27 0 129 -57 178 -99 18
-16 44 -31 59 -35 15 -3 53 -21 85 -40 32 -18 73 -37 91 -41 18 -4 58 -22 90
-41 31 -19 68 -37 82 -40 14 -2 51 -18 82 -34 31 -17 67 -30 80 -30 13 0 34
-9 48 -20 14 -11 35 -20 48 -20 12 0 45 -11 72 -25 27 -14 55 -25 62 -25 7 0
38 -13 68 -29 30 -16 71 -32 90 -36 19 -4 47 -16 62 -27 20 -13 40 -18 70 -16
41 3 43 5 46 37 2 22 -3 40 -16 55 -39 42 -202 298 -202 316 0 18 -20 69 -60
150 -9 19 -23 58 -30 85 -8 28 -20 60 -27 72 -8 11 -27 72 -43 135 -35 138
-55 205 -68 221 -5 7 -17 41 -27 77 -9 36 -20 79 -25 95 -5 17 -20 75 -34 130
-14 55 -33 112 -41 128 -9 15 -27 71 -40 125 -14 53 -35 120 -47 147 -11 28
-29 68 -39 90 -9 22 -20 51 -25 65 -4 14 -30 74 -59 135 -29 60 -54 117 -57
125 -3 9 -27 46 -53 83 -46 66 -79 85 -91 53z"/>
<path d="M9715 3871 c-11 -11 -99 -96 -195 -190 -96 -94 -209 -214 -250 -267
-41 -53 -89 -111 -105 -130 -17 -18 -46 -61 -64 -96 -19 -35 -46 -85 -60 -113
-15 -27 -49 -84 -77 -125 -27 -41 -56 -88 -64 -105 -8 -16 -28 -50 -45 -75
-17 -25 -40 -64 -52 -86 -12 -23 -40 -66 -62 -95 -23 -30 -48 -67 -56 -84 -15
-29 -59 -92 -120 -171 -16 -21 -56 -66 -87 -98 -32 -33 -58 -64 -58 -68 0 -4
-6 -8 -12 -8 -7 0 -42 -27 -76 -60 -35 -33 -84 -74 -108 -91 -48 -33 -53 -48
-26 -71 15 -14 87 -15 582 -13 400 1 580 6 615 14 28 7 68 15 90 18 22 3 44 9
50 14 5 5 21 9 36 9 15 0 31 5 34 10 3 6 17 10 30 10 14 0 40 9 60 20 20 11
43 20 53 20 9 0 39 11 67 24 144 68 206 100 270 137 318 186 356 214 565 420
123 122 166 174 263 318 79 119 93 147 77 166 -19 22 -49 18 -79 -11 -115
-111 -176 -159 -271 -211 -30 -16 -86 -48 -124 -71 -37 -23 -79 -42 -92 -42
-14 0 -46 -11 -72 -25 -26 -14 -54 -25 -62 -25 -8 0 -37 -11 -64 -25 -27 -14
-60 -25 -72 -25 -13 0 -26 -4 -29 -10 -3 -5 -17 -10 -29 -10 -13 0 -37 -7 -52
-15 -16 -8 -44 -15 -62 -15 -19 0 -48 -6 -65 -14 -31 -14 -56 -20 -122 -33
-16 -3 -34 -9 -40 -13 -5 -4 -37 -13 -70 -20 -33 -7 -69 -16 -80 -20 -11 -4
-47 -16 -80 -25 -33 -10 -78 -26 -100 -36 -22 -10 -60 -21 -85 -25 -25 -4 -65
-17 -90 -29 -25 -12 -58 -25 -73 -29 -16 -4 -58 -25 -94 -46 -36 -22 -69 -40
-74 -40 -5 0 -9 -4 -9 -10 0 -11 -92 -60 -114 -60 -16 0 -83 -34 -101 -51 -14
-13 -45 -11 -45 4 0 15 35 38 162 104 69 36 314 279 377 374 28 42 51 81 51
85 0 5 18 36 40 69 22 33 40 65 40 72 0 6 18 49 40 94 22 46 40 92 40 103 0
12 8 35 18 51 10 17 24 50 31 75 13 47 39 114 72 188 10 23 19 48 19 55 0 7 9
30 20 52 11 21 24 54 30 74 7 20 27 68 46 107 19 40 34 76 34 81 0 4 12 25 26
46 35 52 29 81 -16 85 -25 2 -42 -3 -55 -17z"/>
<path d="M3090 3855 c-14 -16 -6 -48 21 -87 11 -14 19 -30 19 -34 0 -9 33 -82
61 -135 10 -20 19 -44 19 -53 0 -8 9 -31 20 -51 11 -20 20 -41 20 -48 0 -10
17 -54 76 -192 7 -16 16 -43 20 -60 4 -16 17 -53 30 -80 12 -28 26 -64 30 -80
4 -16 22 -57 39 -90 17 -33 39 -78 47 -100 9 -22 32 -64 52 -94 20 -29 36 -57
36 -63 0 -28 117 -173 225 -280 125 -123 151 -142 309 -229 31 -16 46 -39 26
-39 -6 0 -32 11 -58 25 -26 14 -53 25 -60 25 -14 0 -106 48 -229 118 -40 23
-79 42 -88 42 -9 0 -42 14 -75 30 -33 17 -73 30 -90 30 -17 0 -49 9 -72 21
-40 20 -139 50 -248 74 -30 6 -68 19 -85 27 -16 8 -52 19 -80 23 -27 4 -62 13
-77 21 -15 8 -43 14 -63 14 -20 0 -53 9 -75 20 -22 11 -50 20 -64 20 -14 0
-28 5 -31 10 -3 6 -18 10 -33 10 -15 0 -42 9 -60 20 -18 11 -39 20 -48 20 -8
0 -36 11 -62 24 -26 13 -61 27 -78 30 -16 4 -66 28 -110 54 -43 26 -101 58
-128 72 -47 24 -225 171 -257 212 -20 26 -53 20 -57 -11 -2 -12 2 -37 9 -54
17 -42 123 -202 166 -250 18 -20 33 -41 33 -46 0 -13 209 -220 244 -242 16 -9
54 -42 85 -72 56 -55 88 -76 265 -176 18 -10 66 -39 107 -63 130 -78 188 -108
209 -108 12 0 38 -11 58 -25 20 -14 45 -25 55 -25 11 0 33 -6 50 -14 18 -7 50
-18 72 -24 22 -6 72 -19 110 -30 155 -44 176 -45 754 -44 393 1 558 5 567 13
28 23 15 49 -41 84 -30 20 -55 39 -55 44 0 5 -17 20 -39 34 -61 41 -301 297
-301 322 0 3 -36 59 -80 125 -44 66 -80 124 -80 129 0 5 -21 40 -46 78 -25 37
-54 85 -65 105 -10 21 -44 74 -74 118 -30 44 -55 86 -55 91 0 6 -9 24 -20 39
-11 16 -27 44 -34 62 -13 31 -36 63 -111 158 -16 21 -49 63 -72 94 -50 64
-305 322 -409 414 -72 63 -102 74 -124 47z"/>
<path d="M8675 2871 c-16 -10 -48 -23 -70 -30 -53 -16 -75 -27 -175 -85 -47
-27 -116 -67 -155 -89 -162 -92 -207 -121 -212 -134 -3 -7 -48 -38 -102 -69
-53 -31 -119 -71 -146 -88 -28 -17 -67 -40 -89 -51 -21 -10 -42 -29 -46 -41
-5 -12 -30 -34 -57 -50 -175 -104 -175 -104 -336 -115 -78 -5 -160 -14 -182
-20 -22 -6 -83 -18 -135 -26 -56 -9 -106 -23 -121 -34 -15 -10 -39 -19 -52
-19 -14 0 -29 -4 -32 -10 -3 -5 -17 -10 -31 -10 -24 0 -34 -4 -89 -33 -61 -32
-121 -61 -154 -73 -31 -11 -38 -11 -62 7 -15 10 -33 19 -41 19 -7 0 -24 9 -38
20 -14 11 -33 20 -43 20 -11 0 -31 8 -45 18 -15 10 -40 24 -57 31 -16 7 -38
17 -47 22 -10 5 -27 9 -37 9 -20 0 -39 7 -118 41 -24 11 -65 19 -92 19 -28 0
-53 5 -56 10 -3 6 -17 10 -31 10 -14 0 -33 4 -42 9 -9 4 -100 11 -202 15 -102
3 -196 9 -210 13 -40 13 -121 63 -171 107 -25 23 -70 54 -100 71 -125 69 -173
97 -199 115 -16 11 -33 20 -38 20 -6 0 -21 14 -33 31 -12 17 -34 36 -48 43
-14 6 -57 30 -96 52 -303 179 -365 214 -383 214 -11 0 -43 12 -72 27 -39 20
-56 24 -68 16 -30 -18 -25 -43 20 -92 23 -27 68 -79 98 -116 30 -37 69 -83 85
-103 17 -21 35 -44 40 -54 56 -93 301 -366 380 -422 22 -16 51 -41 65 -57 14
-15 50 -41 81 -57 32 -17 69 -38 83 -48 25 -16 52 -24 156 -44 25 -5 68 -14
95 -20 28 -6 88 -13 135 -16 167 -12 99 -23 -141 -24 -263 -1 -403 -12 -854
-70 -44 -5 -97 -10 -118 -10 -21 0 -46 -4 -56 -9 -23 -13 -450 -21 -536 -10
-190 24 -306 50 -380 84 -27 13 -63 27 -80 31 -16 4 -35 11 -42 16 -17 14 -54
6 -67 -14 -9 -14 3 -30 72 -98 46 -44 89 -80 96 -80 7 0 33 -17 57 -38 59 -52
176 -122 203 -122 12 0 42 -12 67 -28 56 -34 84 -48 134 -63 22 -6 45 -16 52
-21 7 -6 27 -14 45 -18 18 -5 58 -16 88 -25 30 -10 80 -21 110 -25 30 -4 98
-14 150 -21 172 -25 447 -13 583 25 32 9 74 16 94 16 42 0 81 11 176 51 37 16
76 29 86 29 10 0 48 14 84 30 37 17 71 30 77 30 5 0 38 13 72 28 35 16 79 34
98 42 19 7 39 17 44 22 6 4 16 8 23 8 7 0 96 41 196 90 101 50 188 90 194 90
6 0 22 9 37 21 l26 20 30 -21 c16 -12 30 -26 30 -31 0 -6 11 -21 25 -35 l25
-25 -47 -32 c-26 -18 -57 -41 -68 -52 -12 -11 -41 -31 -66 -44 -24 -13 -60
-36 -79 -50 -33 -26 -144 -104 -178 -126 -9 -5 -56 -36 -105 -67 -49 -32 -97
-58 -106 -58 -9 0 -27 -9 -41 -20 -14 -11 -33 -20 -42 -20 -10 0 -33 -9 -53
-20 -20 -11 -42 -20 -51 -20 -8 0 -43 -9 -77 -19 -34 -10 -87 -23 -117 -29
-30 -6 -91 -18 -135 -26 -132 -27 -374 -22 -530 10 -44 9 -98 17 -120 17 -36
2 -40 -1 -43 -23 -2 -17 5 -33 20 -47 30 -27 94 -63 114 -63 8 0 47 -17 87
-37 40 -21 92 -45 117 -54 25 -9 65 -25 90 -34 43 -16 87 -26 250 -59 82 -16
324 -38 343 -30 7 2 64 8 127 13 63 5 133 14 155 19 148 37 196 52 240 72 151
68 359 182 399 218 11 11 44 35 73 53 28 19 84 65 123 102 39 37 75 67 78 67
4 0 44 -33 89 -73 45 -39 110 -91 145 -115 72 -49 226 -142 236 -142 3 0 36
-14 72 -31 144 -70 165 -77 295 -110 169 -43 503 -53 663 -20 94 20 156 32
190 38 18 3 35 9 38 14 3 5 15 9 27 9 12 0 37 9 55 20 18 11 41 20 52 20 11 0
35 9 55 20 19 11 51 29 70 40 20 11 44 20 54 20 24 0 96 38 127 67 52 48 12
95 -62 73 -179 -55 -530 -55 -754 -1 -25 6 -62 14 -83 18 -21 3 -40 10 -43 14
-3 5 -14 9 -24 9 -11 0 -61 18 -112 40 -51 22 -98 40 -105 40 -13 0 -309 194
-387 253 -26 20 -63 44 -84 54 -20 9 -57 34 -81 55 -24 21 -48 38 -52 38 -20
0 -7 39 27 78 35 41 75 55 89 32 3 -5 13 -10 21 -10 13 0 112 -46 189 -88 11
-6 52 -25 90 -43 39 -18 87 -41 108 -51 22 -10 43 -18 48 -18 5 0 48 -18 95
-40 47 -22 90 -40 95 -40 4 0 32 -11 61 -24 29 -14 67 -27 83 -31 29 -7 86
-27 135 -48 25 -11 137 -34 295 -62 75 -13 346 -32 390 -27 11 1 54 5 95 8 41
3 80 9 85 14 6 4 39 11 75 15 62 6 145 27 182 46 10 5 27 9 38 9 11 0 34 9 52
20 18 11 45 20 59 20 15 0 37 8 50 18 30 22 132 72 148 72 7 0 33 12 59 27 26
14 60 33 75 41 15 8 33 23 40 33 7 11 35 33 62 48 67 39 190 164 182 185 -10
26 -38 31 -69 13 -17 -9 -37 -17 -47 -17 -10 0 -44 -13 -76 -30 -34 -18 -74
-30 -96 -30 -21 0 -40 -4 -43 -9 -5 -7 -62 -21 -161 -37 -74 -12 -495 -15
-569 -4 -39 6 -120 15 -181 21 -60 6 -132 14 -160 19 -27 5 -97 14 -155 20
-58 6 -141 15 -185 21 -44 5 -200 11 -348 13 -147 2 -270 6 -274 10 -3 3 0 6
8 6 25 1 233 29 289 40 132 24 238 74 326 152 29 26 72 57 94 68 22 11 40 24
40 28 0 4 32 41 71 82 98 103 237 269 256 304 13 25 68 94 219 273 25 31 34
51 32 70 -4 34 -23 38 -63 14z"/>
</g>
</svg>
