<?xml version="1.0" standalone="no"?>
<!DOCTYPE svg PUBLIC "-//W3C//DTD SVG 20010904//EN"
 "http://www.w3.org/TR/2001/REC-SVG-20010904/DTD/svg10.dtd">
<svg version="1.0" xmlns="http://www.w3.org/2000/svg"
 width="1280.000000pt" height="640.000000pt" viewBox="0 600 1280 5"
 preserveAspectRatio="xMidYMid meet">
<metadata>
Created by potrace 1.16, written by Peter Selinger 2001-2019
</metadata>
<g transform="translate(0.000000,1280.000000) scale(0.100000,-0.100000)"
fill="#101A83" stroke="none">
<path d="M1966 8381 c-3 -5 -23 -11 -43 -14 -66 -8 -218 -41 -223 -48 -3 -3
-54 -14 -115 -24 -60 -10 -112 -21 -115 -26 -3 -4 -55 -17 -115 -28 -61 -12
-119 -25 -130 -30 -11 -5 -60 -16 -110 -25 -76 -13 -94 -20 -112 -44 -13 -15
-23 -31 -23 -37 0 -5 -10 -22 -23 -37 -13 -14 -32 -44 -43 -65 -10 -21 -25
-42 -31 -46 -7 -4 -13 -12 -13 -17 0 -5 -18 -33 -40 -62 -22 -29 -40 -59 -40
-65 0 -7 -4 -13 -10 -13 -5 0 -19 -18 -30 -40 -11 -22 -25 -40 -30 -40 -6 0
-10 -6 -10 -12 0 -7 -18 -35 -40 -63 -22 -27 -40 -55 -40 -62 0 -6 -6 -18 -12
-25 -24 -25 -58 -77 -58 -88 0 -5 -4 -10 -9 -10 -5 0 -16 -16 -25 -35 -9 -19
-23 -38 -31 -42 -8 -5 -18 -23 -21 -41 -5 -25 -3 -33 12 -39 21 -8 225 24 271
42 17 8 46 15 64 17 27 2 36 -2 45 -21 7 -13 20 -28 28 -33 9 -5 16 -14 16
-19 0 -6 14 -31 32 -55 43 -60 72 -58 107 6 14 25 33 54 43 64 10 11 18 26 18
33 0 7 24 41 53 75 29 35 61 75 71 91 10 15 24 27 30 27 7 0 25 13 41 30 74
78 282 191 397 216 40 9 82 20 93 25 11 5 47 12 79 16 76 10 89 28 53 75 -15
19 -27 39 -27 45 0 5 -8 18 -18 29 -10 10 -28 34 -41 52 l-23 32 21 33 c12 17
33 46 47 62 24 28 26 29 37 11 7 -10 23 -32 36 -48 21 -26 22 -32 10 -55 -12
-23 -11 -27 10 -44 27 -22 103 -26 119 -6 16 18 25 64 18 90 -4 17 -17 27 -46
36 -22 6 -40 15 -40 20 0 4 -16 29 -37 55 l-36 46 31 44 c18 25 32 51 32 58 0
28 -41 50 -54 29z"/>
<path d="M10863 8300 c-26 -11 -63 -78 -63 -115 0 -26 13 -56 39 -88 12 -15
13 -26 2 -70 -8 -29 -21 -72 -31 -97 -23 -58 -50 -148 -50 -166 0 -8 -4 -14
-9 -14 -5 0 -19 -42 -31 -92 -12 -51 -27 -96 -32 -99 -6 -4 -12 -27 -15 -52
-4 -36 -1 -51 17 -75 12 -16 25 -51 27 -76 4 -36 13 -52 37 -72 61 -51 187
-134 202 -134 9 0 33 14 54 30 21 17 42 30 48 30 5 0 16 10 24 21 10 16 27 23
66 27 50 4 54 3 86 -31 18 -19 36 -50 40 -67 6 -31 31 -68 86 -128 62 -68 140
-208 140 -252 0 -22 59 -70 86 -70 10 0 53 30 94 66 41 36 87 72 102 80 15 8
32 23 38 34 6 11 16 20 23 20 6 0 23 11 37 25 37 37 123 105 133 105 5 0 22
12 37 28 88 84 106 93 158 79 29 -8 51 -8 79 1 80 24 108 144 48 208 -21 23
-36 29 -85 32 -57 4 -61 3 -95 -31 -28 -28 -35 -43 -35 -75 0 -49 -5 -51 -130
-59 -107 -6 -204 2 -223 20 -6 7 -25 20 -40 30 -15 10 -32 30 -38 45 -6 15
-15 30 -21 33 -25 16 -24 296 2 341 6 10 10 27 10 38 0 16 7 20 33 20 24 0 42
9 65 33 27 28 32 40 32 82 0 57 -1 58 -53 103 -47 40 -89 42 -137 7 -46 -34
-60 -62 -58 -112 2 -48 -2 -54 -52 -73 -19 -7 -44 -21 -55 -30 -11 -10 -38
-24 -60 -31 -22 -7 -47 -18 -55 -25 -30 -22 -133 -37 -177 -25 -44 12 -133 90
-133 116 0 8 -10 33 -23 57 -20 39 -36 90 -52 176 -5 25 -3 32 8 32 23 0 77
49 77 70 0 10 5 22 10 25 6 3 10 22 10 41 0 19 -4 34 -10 34 -5 0 -10 6 -10
14 0 35 -35 57 -95 62 -33 2 -70 0 -82 -6z"/>
<path d="M1735 7700 c-3 -5 -17 -10 -30 -10 -26 0 -106 -32 -131 -52 -53 -42
-164 -153 -164 -165 0 -7 -5 -13 -11 -13 -5 0 -17 -15 -25 -32 -8 -18 -26 -51
-39 -73 -13 -22 -27 -57 -30 -77 -4 -21 -11 -38 -15 -38 -14 0 -41 -140 -47
-242 -3 -54 -10 -98 -14 -98 -12 0 -11 -67 1 -75 6 -3 10 -32 10 -63 0 -31 7
-88 15 -125 14 -69 102 -263 133 -296 9 -9 25 -32 36 -51 22 -39 30 -49 98
-121 106 -111 253 -196 379 -218 144 -24 422 -7 510 32 19 8 50 20 69 27 53
20 193 104 238 143 24 22 29 56 10 75 -14 14 -58 16 -58 2 0 -5 -19 -14 -42
-21 -23 -6 -60 -19 -83 -29 -111 -52 -327 -51 -440 0 -22 10 -56 26 -75 34
-103 47 -243 162 -300 246 -13 19 -27 37 -30 40 -3 3 -14 23 -25 45 -10 22
-24 46 -29 54 -13 17 -36 81 -36 101 0 8 -6 26 -13 40 -49 93 -54 533 -7 595
4 6 15 37 26 69 13 45 30 72 70 113 29 29 65 58 81 64 48 18 140 13 177 -11
36 -21 70 -79 64 -108 -2 -9 -28 -31 -58 -49 -30 -17 -63 -38 -72 -47 -10 -9
-22 -16 -27 -16 -12 0 -101 -80 -101 -91 0 -5 -9 -18 -20 -29 -11 -11 -23 -38
-26 -60 -4 -22 -10 -40 -15 -40 -12 0 -11 -26 0 -48 6 -9 13 -33 16 -53 9 -59
74 -144 238 -310 118 -120 159 -168 172 -203 18 -46 18 -48 -4 -91 -12 -25
-26 -45 -30 -45 -20 0 -101 -83 -101 -104 0 -56 54 -60 127 -11 29 19 56 35
61 35 9 0 18 7 123 89 79 62 113 101 142 160 19 37 23 111 7 111 -5 0 -10 7
-10 15 0 20 -42 105 -52 105 -4 0 -8 5 -8 12 0 7 -15 27 -32 46 l-33 35 30 -7
c17 -4 59 -30 94 -57 60 -45 69 -49 120 -49 l56 0 77 80 c43 44 78 86 78 94 0
7 7 19 15 26 20 16 19 35 -2 60 -21 24 -52 26 -79 5 -10 -8 -25 -15 -31 -15
-15 0 -111 58 -134 81 -21 21 -88 33 -143 25 -34 -5 -52 -17 -102 -70 -34 -34
-63 -68 -65 -75 -5 -14 -185 161 -204 199 -13 25 -19 66 -17 106 3 30 108 131
144 139 33 8 118 -2 118 -13 0 -4 21 -14 48 -21 26 -8 70 -27 98 -42 86 -48
97 -44 226 78 87 82 113 112 113 132 0 26 -1 26 -72 23 -67 -2 -77 1 -138 35
-124 71 -150 82 -193 82 -40 1 -48 -4 -133 -84 -88 -82 -119 -101 -119 -71 0
43 -78 127 -136 147 -21 7 -43 17 -48 21 -14 12 -164 10 -171 -2z"/>
<path d="M5625 7700 c-3 -5 -17 -10 -30 -10 -48 0 -173 -68 -202 -110 -8 -11
-21 -20 -29 -20 -8 0 -19 -11 -24 -25 -5 -14 -16 -28 -24 -31 -8 -3 -24 -24
-36 -45 -11 -22 -29 -50 -40 -61 -11 -12 -20 -26 -20 -31 0 -4 -11 -32 -24
-60 -14 -29 -30 -81 -37 -117 -7 -36 -16 -68 -21 -71 -4 -3 -13 -64 -19 -136
-12 -135 -1 -321 20 -360 6 -10 20 -48 31 -85 12 -37 26 -70 31 -73 5 -4 9
-13 9 -22 0 -8 16 -37 35 -63 19 -26 35 -52 35 -58 0 -13 37 -57 125 -150 89
-94 140 -130 275 -191 129 -58 486 -55 630 5 140 59 281 143 300 179 7 13 10
31 6 41 -9 24 -96 14 -166 -19 -121 -57 -335 -63 -447 -11 -17 7 -36 14 -41
14 -13 0 -72 31 -90 47 -7 7 -30 20 -50 30 -20 10 -78 58 -127 108 -74 74 -98
105 -132 175 -55 114 -63 136 -63 168 0 16 -4 32 -9 37 -15 16 -41 215 -41
317 0 94 23 262 39 282 4 6 14 33 21 60 15 54 53 104 114 148 33 24 49 28 101
28 71 0 114 -22 152 -79 30 -45 29 -60 -7 -72 -16 -6 -30 -15 -30 -20 0 -5
-15 -16 -32 -24 -99 -46 -208 -151 -208 -201 0 -7 -5 -14 -11 -16 -20 -7 -23
-101 -4 -144 34 -79 50 -109 62 -117 7 -4 13 -13 13 -19 0 -15 102 -122 218
-230 76 -71 135 -158 134 -198 -1 -36 -29 -75 -98 -135 -59 -50 -64 -63 -35
-89 24 -21 81 -13 107 15 9 10 21 19 27 19 5 0 30 15 56 33 25 17 57 38 71 45
29 15 125 105 157 148 32 41 38 101 19 167 -9 31 -19 57 -24 59 -4 2 -16 21
-27 42 -11 22 -41 60 -66 86 -25 25 -48 53 -52 63 -3 9 -12 17 -19 17 -6 0
-26 14 -42 30 -17 17 -51 50 -76 74 -101 96 -145 170 -134 224 5 26 46 75 106
127 26 23 119 28 159 9 13 -7 63 -30 110 -53 129 -62 144 -59 254 54 39 39 79
77 91 83 11 6 26 22 34 37 13 24 13 28 -5 38 -11 7 -53 12 -93 12 -45 0 -75 4
-80 12 -4 6 -28 21 -52 32 -25 12 -65 32 -89 46 -72 41 -135 31 -181 -27 -12
-16 -26 -28 -32 -28 -6 0 -33 -23 -60 -52 -39 -40 -52 -48 -59 -37 -5 8 -9 22
-9 32 0 31 -88 116 -134 129 -22 6 -45 15 -50 20 -14 11 -154 10 -161 -2z"/>
<path d="M3012 7614 c-93 -33 -162 -138 -162 -245 0 -77 36 -159 98 -222 35
-36 202 -127 233 -127 8 0 24 -6 34 -14 19 -14 19 -15 -5 -35 -34 -28 -105
-51 -157 -51 -83 0 -82 6 -85 -334 l-3 -297 -33 -27 c-49 -41 -44 -67 22 -97
30 -14 61 -25 69 -25 26 0 91 -32 105 -51 7 -10 19 -19 26 -19 15 0 86 -72 86
-87 0 -18 41 -43 69 -43 13 0 78 32 143 71 174 103 281 218 327 349 7 19 18
46 25 60 7 14 19 61 25 105 7 44 18 90 24 102 7 16 7 34 0 60 -6 21 -18 76
-27 122 -8 46 -19 87 -24 90 -5 3 -18 27 -31 53 -12 25 -28 49 -36 52 -8 3
-15 12 -15 19 0 14 -75 87 -89 87 -4 0 -16 8 -27 18 -57 51 -271 172 -305 172
-6 0 -17 6 -25 14 -7 8 -33 17 -56 21 -51 9 -112 43 -151 83 -23 24 -28 37
-25 68 2 32 8 41 33 52 55 24 60 29 60 58 0 27 -3 29 -40 31 -22 2 -59 -4 -83
-13z m358 -679 c60 -34 155 -133 184 -189 15 -30 32 -85 38 -123 5 -37 14 -76
19 -85 11 -23 12 -125 0 -132 -4 -3 -11 -30 -15 -61 -6 -55 -30 -118 -53 -143
-7 -7 -13 -20 -13 -28 0 -20 -24 -17 -45 6 -10 11 -23 20 -29 20 -6 0 -29 14
-50 30 -22 17 -44 30 -48 30 -5 0 -29 14 -54 30 l-44 31 0 291 0 292 33 27
c17 16 34 27 37 26 3 -1 21 -11 40 -22z"/>
<path d="M7195 7624 c-38 -8 -100 -28 -105 -34 -3 -4 -26 -17 -53 -30 -26 -13
-55 -32 -64 -42 -9 -10 -22 -18 -29 -18 -8 0 -20 -13 -28 -29 -9 -16 -22 -31
-31 -34 -8 -4 -15 -14 -15 -23 0 -27 -22 -10 -39 32 -32 80 -108 133 -125 88
-9 -24 -7 -62 4 -69 21 -13 88 -172 99 -236 7 -42 11 -233 11 -539 l0 -473
-40 -38 c-48 -46 -50 -64 -9 -87 17 -9 45 -27 63 -39 17 -12 40 -27 51 -32 11
-6 42 -33 70 -60 57 -59 83 -64 108 -21 10 17 61 76 113 132 67 72 94 107 92
122 -4 30 -43 32 -91 6 -65 -37 -64 -42 -69 363 l-5 358 28 19 c15 11 32 20
39 20 18 0 100 -70 100 -86 0 -7 6 -17 14 -21 7 -4 23 -37 36 -73 12 -36 26
-74 31 -85 44 -105 43 -449 -2 -562 -5 -13 -13 -33 -18 -45 -25 -66 -32 -79
-53 -103 -44 -51 -273 -278 -321 -317 -41 -35 -48 -45 -45 -72 4 -42 43 -47
86 -12 16 15 33 26 37 26 9 0 122 95 210 176 39 36 86 79 105 97 37 34 130
140 172 197 51 69 97 167 109 236 7 38 18 72 23 76 15 10 15 316 0 326 -6 4
-14 29 -18 55 -7 49 -32 118 -46 127 -4 3 -17 23 -28 45 -11 22 -37 58 -57 79
-21 22 -51 64 -67 95 -51 95 -61 100 -113 49 -18 -18 -48 -41 -66 -52 -19 -10
-38 -24 -44 -30 -5 -7 -34 -24 -62 -39 l-53 -27 0 149 c0 81 4 172 10 200 20
105 96 165 224 178 91 9 114 27 82 62 -17 19 -30 21 -110 20 -50 -1 -100 -3
-111 -5z"/>
<path d="M10545 7353 c-87 -83 -124 -152 -125 -236 0 -64 18 -103 75 -157 95
-90 93 -85 97 -356 l3 -238 -41 -7 c-23 -4 -55 -16 -73 -27 -62 -38 -105 -170
-65 -203 12 -10 24 -10 60 -1 50 13 103 15 120 4 7 -4 17 -62 23 -137 6 -71
16 -141 20 -155 5 -14 17 -90 26 -170 10 -80 22 -151 28 -157 13 -17 52 -16
67 2 6 8 22 74 34 147 13 73 25 140 29 148 3 8 10 52 16 98 5 46 12 86 15 89
3 4 14 -1 23 -9 60 -52 124 -61 150 -21 10 16 25 37 33 47 27 34 152 156 160
156 5 0 19 13 32 29 13 16 33 34 46 40 12 6 22 18 22 26 0 8 4 15 9 15 13 0
69 105 87 160 7 25 14 62 14 82 0 20 5 40 10 43 12 8 13 142 1 149 -5 4 -12
28 -16 55 -4 28 -20 70 -36 96 -16 25 -29 50 -29 55 0 5 -11 17 -25 26 -14 9
-25 21 -25 27 0 5 -18 29 -40 53 -22 24 -40 50 -40 59 0 8 -4 15 -10 15 -5 0
-13 12 -16 28 -16 65 -51 68 -122 12 -27 -22 -53 -40 -58 -40 -4 0 -14 -7 -23
-15 -22 -21 -139 -95 -151 -95 -6 0 -10 11 -10 24 0 14 -7 31 -15 40 -8 8 -15
19 -15 24 0 19 -73 74 -118 89 -90 30 -115 82 -71 144 51 73 -9 106 -76 42z
m467 -460 c39 -43 79 -110 122 -202 l40 -84 -1 -128 c-1 -99 -5 -136 -18 -161
-9 -18 -26 -57 -36 -85 -11 -29 -24 -55 -29 -58 -5 -3 -27 6 -49 20 -23 14
-43 25 -46 25 -3 0 -15 8 -26 18 -11 11 -37 25 -59 32 -21 7 -41 19 -44 26 -3
8 -8 146 -12 308 l-7 295 34 9 c65 19 103 14 131 -15z"/>
<path d="M4685 7212 c-5 -4 -19 -25 -30 -47 -11 -22 -28 -46 -37 -53 -10 -7
-18 -18 -18 -24 0 -14 -77 -88 -91 -88 -20 0 -8 -44 21 -77 17 -18 30 -45 30
-58 0 -14 5 -25 10 -25 6 0 10 -103 10 -290 0 -187 -4 -290 -10 -290 -5 0 -18
-8 -28 -18 -9 -9 -32 -28 -49 -40 -39 -28 -58 -21 -116 41 l-39 41 4 310 c1
171 -1 332 -5 357 -15 87 -77 161 -190 227 -71 41 -81 34 -157 -115 -13 -26
-32 -56 -42 -65 -19 -20 -33 -80 -24 -103 10 -28 36 -29 65 -1 34 33 44 33 67
-1 18 -26 19 -52 19 -335 l0 -307 -42 -43 c-53 -54 -54 -73 -5 -88 79 -25 159
-69 207 -116 94 -91 89 -89 124 -63 17 13 31 28 31 33 0 19 185 186 194 175 1
-2 9 -20 16 -39 29 -72 156 -170 221 -170 40 0 55 13 88 75 47 87 72 130 86
145 32 35 15 90 -26 90 -22 0 -32 -6 -39 -26 -13 -34 -38 -28 -61 16 -17 31
-19 60 -19 306 0 149 3 286 6 303 4 17 24 50 45 74 22 23 39 44 39 47 -1 10
-60 70 -69 70 -13 0 -87 91 -95 118 -4 12 -11 22 -16 22 -4 0 -10 9 -13 20 -5
20 -41 27 -62 12z"/>
<path d="M8954 7182 c-11 -15 -32 -47 -45 -72 -13 -25 -27 -47 -30 -50 -3 -3
-16 -25 -30 -50 -13 -25 -27 -46 -31 -48 -15 -7 -8 -49 12 -67 19 -17 20 -16
50 9 37 30 52 32 71 9 11 -13 15 -79 17 -312 4 -330 -1 -367 -49 -395 -23 -14
-29 -24 -27 -44 2 -15 12 -31 25 -37 19 -10 83 -72 83 -81 0 -2 21 -31 46 -64
27 -36 53 -60 64 -60 18 0 100 95 100 116 0 5 25 32 55 59 58 53 69 84 37 107
-43 32 -47 58 -50 378 l-3 305 55 40 c31 22 64 40 73 40 11 0 31 -21 50 -55
l33 -54 0 -288 c0 -309 1 -305 -55 -366 -34 -38 -38 -28 63 -141 39 -45 72
-87 72 -94 1 -19 48 -49 73 -45 15 2 29 18 44 48 12 25 51 78 87 117 36 39 66
75 66 81 0 5 -7 15 -16 22 -19 17 -44 75 -44 106 0 12 -4 26 -10 29 -6 4 -10
107 -10 276 l0 270 46 44 c25 25 51 45 57 45 7 0 32 -18 57 -39 l45 -39 5
-364 c5 -339 6 -366 25 -404 32 -65 103 -133 174 -167 l64 -31 30 35 c16 18
37 50 46 69 9 19 28 53 41 75 14 22 33 57 44 77 17 33 17 38 3 52 -21 21 -44
20 -69 -4 -26 -23 -29 -24 -51 -7 -30 22 -39 117 -35 404 l3 275 43 37 c23 20
42 44 42 52 0 26 -32 46 -92 59 -62 12 -78 23 -170 113 -39 37 -68 57 -84 57
-13 0 -24 -4 -24 -8 0 -5 -12 -22 -27 -39 -16 -17 -37 -42 -49 -55 -34 -38
-115 -108 -125 -108 -5 0 -14 11 -19 25 -21 56 -185 185 -234 185 -8 0 -25
-14 -38 -30 -27 -36 -97 -106 -154 -155 -43 -37 -54 -35 -68 10 -14 48 -183
176 -229 174 -6 0 -21 -12 -33 -27z"/>
<path d="M8182 7168 c-7 -7 -12 -17 -12 -22 0 -28 -171 -206 -197 -206 -14 0
-83 -66 -83 -80 0 -6 -11 -15 -24 -20 -23 -9 -30 -17 -78 -111 -52 -101 -53
-107 -53 -266 0 -108 4 -156 13 -165 6 -6 12 -19 12 -28 0 -42 75 -165 144
-238 40 -42 77 -87 80 -99 10 -32 40 -29 86 7 21 17 41 30 45 30 4 0 19 11 34
25 59 57 68 65 75 65 4 0 23 12 41 26 l34 26 21 -34 c11 -18 20 -37 20 -41 0
-22 73 -77 115 -88 26 -7 49 -18 52 -25 7 -20 47 -17 65 4 8 9 28 40 43 67 15
28 50 82 76 122 51 75 57 91 37 111 -19 19 -57 14 -86 -13 -63 -58 -72 -21
-72 303 0 291 4 317 51 342 15 9 19 19 17 42 -3 30 -7 32 -61 45 -32 7 -74 24
-95 38 -20 14 -41 25 -46 25 -5 0 -18 9 -30 20 -136 130 -160 150 -185 150
-15 0 -32 -5 -39 -12z m-54 -255 c15 -10 39 -29 53 -43 15 -14 48 -37 74 -50
l47 -25 -6 -140 c-3 -77 -6 -208 -6 -292 l0 -152 -35 -27 c-19 -14 -40 -23
-47 -20 -45 23 -65 39 -100 78 -21 24 -38 47 -38 51 0 4 -9 27 -21 50 -23 46
-48 182 -49 266 0 89 21 182 57 254 19 37 36 67 39 67 3 0 17 -8 32 -17z"/>
</g>
</svg>
